<?xml version="1.0" encoding="iso-8859-1"?>
<!-- Generator: Adobe Illustrator 19.0.0, SVG Export Plug-In . SVG Version: 6.00 Build 0)  -->
<svg xmlns="http://www.w3.org/2000/svg" xmlns:xlink="http://www.w3.org/1999/xlink" version="1.1" id="Layer_1" x="0px" y="0px" viewBox="0 0 485 485" style="enable-background:new 0 0 485 485;" xml:space="preserve" width="512px" height="512px">
<g>
	<path d="M413.974,71.026C368.171,25.225,307.274,0,242.5,0C177.726,0,116.829,25.225,71.027,71.026   C25.225,116.829,0,177.726,0,242.5c0,64.774,25.225,125.671,71.027,171.473S177.726,485,242.5,485H288   c33.359,0,60.5-27.14,60.5-60.5c0-33.359-27.14-60.499-60.5-60.5c-16.817,0-30.5-13.682-30.5-30.5c0-16.817,13.683-30.5,30.5-30.5   h136.5c33.359,0,60.5-27.14,60.5-60.5C485,177.726,459.775,116.829,413.974,71.026z M424.5,273H288c-33.359,0-60.5,27.14-60.5,60.5   c0,33.36,27.141,60.5,60.499,60.5c16.818,0,30.501,13.683,30.501,30.5c0,16.818-13.683,30.5-30.5,30.5h-45.5   C125.327,455,30,359.673,30,242.5S125.327,30,242.5,30S455,125.327,455,242.5C455,259.318,441.317,273,424.5,273z" fill="#FFFFFF"/>
	<path d="M105,207.5c-19.299,0-35,15.701-35,35s15.701,35,35,35s35-15.701,35-35S124.299,207.5,105,207.5z" fill="#FFFFFF"/>
	<path d="M328.75,93.111c-5.316-3.07-11.362-4.693-17.481-4.693c-12.475,0-24.097,6.707-30.329,17.503   c-4.675,8.096-5.917,17.529-3.497,26.56c2.42,9.03,8.211,16.577,16.308,21.252c5.317,3.07,11.361,4.692,17.48,4.692   c12.476,0,24.098-6.707,30.33-17.503c4.675-8.096,5.917-17.529,3.497-26.559S336.847,97.786,328.75,93.111z" fill="#FFFFFF"/>
	<path d="M173.731,88.418c-6.119,0-12.165,1.623-17.481,4.693c-8.096,4.674-13.888,12.222-16.308,21.252   c-2.419,9.03-1.178,18.462,3.497,26.558c6.233,10.797,17.855,17.504,30.33,17.504c6.119,0,12.164-1.623,17.481-4.692   c8.097-4.674,13.888-12.222,16.308-21.252c2.419-9.03,1.178-18.462-3.497-26.558C197.828,95.125,186.207,88.418,173.731,88.418z" fill="#FFFFFF"/>
</g>
<g>
</g>
<g>
</g>
<g>
</g>
<g>
</g>
<g>
</g>
<g>
</g>
<g>
</g>
<g>
</g>
<g>
</g>
<g>
</g>
<g>
</g>
<g>
</g>
<g>
</g>
<g>
</g>
<g>
</g>
</svg>
